<?xml version="1.0" encoding="utf-8"?><svg version="1.1" id="Layer_1" xmlns="http://www.w3.org/2000/svg" xmlns:xlink="http://www.w3.org/1999/xlink" x="0px" y="0px" viewBox="0 0 63.27 122.88" style="enable-background:new 0 0 63.27 122.88" xml:space="preserve"><style type="text/css"><![CDATA[
	.st0{fill-rule:evenodd;clip-rule:evenodd;}
]]></style><g><path fill="#1f77a6" class="st0" d="M26.65,122.88L3.25,61.19c20.86-0.95,31.06,0.16,54.41,0l-24.46,61.69H26.65L26.65,122.88z M42.79,19.77 c-0.24-2.69-2.66-4.55-4.85-6.23c-1.02-0.78-1.99-1.53-2.8-2.37C33.06,9,32.26,6.66,34.97,3.37c-2.13-0.48-4.23-0.52-6.18-0.17 c-2.12,0.39-4.07,1.24-5.68,2.51c-1.6,1.26-2.88,2.93-3.67,4.96c-0.92,2.35-1.19,5.17-0.57,8.41c0.15,0.8-0.39,1.58-1.22,1.72 L17.6,20.8l0,0c-1.21,0.18-2.31,0.53-3.27,1.01c-1.83,0.93-3.21,2.37-4.04,4.11c-0.84,1.77-1.13,3.87-0.79,6.1 c0.22,1.43,0.71,2.91,1.49,4.38c0.38,0.73,0.09,1.62-0.65,2c-0.11,0.06-0.22,0.1-0.34,0.12c-2.25,0.62-4.01,1.69-5.2,3.06 c-0.82,0.94-1.37,2.03-1.62,3.19c-0.25,1.19-0.21,2.47,0.17,3.79c0.61,2.15,2.08,4.4,4.52,6.54h47.04c2.1-1.11,3.52-2.64,4.36-4.37 c0.92-1.89,1.15-4.02,0.82-6.09c-0.34-2.1-1.27-4.12-2.66-5.76c-1.48-1.74-3.48-3.04-5.87-3.51c-0.03,0-0.05-0.01-0.08-0.02 c-1.97,0.57-4.19,1.53-6.53,2.55c-6.89,2.99-14.76,6.4-22.19,2.7c-0.75-0.37-1.04-1.27-0.66-2c0.38-0.73,1.29-1.02,2.04-0.65 c6.15,3.07,13.31-0.04,19.59-2.77c2.42-1.05,4.72-2.05,6.88-2.67c0.56-3.01,0.22-5.28-0.81-6.97c-1-1.63-2.72-2.79-4.96-3.6 c-2.45,2.11-5.12,3.6-7.76,4.33c-2.77,0.76-5.52,0.67-7.99-0.4c-0.76-0.33-1.11-1.21-0.77-1.96c0.34-0.75,1.24-1.08,2-0.75 c1.79,0.78,3.84,0.83,5.95,0.25C38.46,22.83,40.69,21.57,42.79,19.77L42.79,19.77z M23.2,14.75c0.65,0,1.18,0.52,1.18,1.16 c0,0.64-0.53,1.16-1.18,1.16c-0.65,0-1.18-0.52-1.18-1.16C22.02,15.26,22.55,14.75,23.2,14.75L23.2,14.75z M30.56,45.62 c0.74,0,1.34,0.59,1.34,1.31c0,0.73-0.6,1.31-1.34,1.31c-0.74,0-1.34-0.59-1.34-1.31C29.22,46.21,29.82,45.62,30.56,45.62 L30.56,45.62z M13.69,43.29c0.74,0,1.34,0.59,1.34,1.31c0,0.73-0.6,1.31-1.34,1.31c-0.74,0-1.34-0.59-1.34-1.31 C12.35,43.88,12.95,43.29,13.69,43.29L13.69,43.29z M51.74,44.55c0.74,0,1.34,0.59,1.34,1.31c0,0.73-0.6,1.31-1.34,1.31 s-1.34-0.59-1.34-1.31C50.4,45.14,51,44.55,51.74,44.55L51.74,44.55z M24.24,49.45c-0.26-0.31-0.22-0.77,0.09-1.03 c0.31-0.26,0.78-0.22,1.05,0.09l1.72,2c0.26,0.31,0.22,0.77-0.09,1.03c-0.31,0.26-0.78,0.22-1.05-0.09L24.24,49.45L24.24,49.45z M7.37,47.12c-0.27-0.31-0.22-0.77,0.09-1.03c0.31-0.26,0.78-0.22,1.05,0.09l1.72,2c0.26,0.31,0.22,0.77-0.09,1.03 c-0.31,0.26-0.78,0.22-1.05-0.09L7.37,47.12L7.37,47.12z M45.42,48.39c-0.26-0.31-0.22-0.77,0.09-1.03 c0.31-0.26,0.78-0.22,1.05,0.09l1.72,2c0.26,0.31,0.22,0.77-0.09,1.03c-0.31,0.26-0.78,0.22-1.05-0.09L45.42,48.39L45.42,48.39z M39.82,11.21c2.61,2,5.48,4.21,5.95,7.92c2.93,1.03,5.23,2.6,6.64,4.9c1.39,2.26,1.88,5.15,1.23,8.83 c2.46,0.79,4.53,2.27,6.12,4.14c1.74,2.05,2.9,4.57,3.33,7.19c0.43,2.64,0.13,5.38-1.07,7.83c-1.14,2.35-3.09,4.41-5.95,5.85 c-0.23,0.14-0.5,0.21-0.79,0.21H7.31v0c-0.35,0-0.69-0.12-0.98-0.35c-3.19-2.64-5.1-5.55-5.9-8.36c-0.51-1.79-0.56-3.55-0.21-5.18 c0.36-1.66,1.13-3.19,2.27-4.5c1.26-1.45,2.97-2.65,5.08-3.46C7.05,34.96,6.7,33.7,6.5,32.47c-0.44-2.8-0.05-5.49,1.05-7.79 c1.11-2.33,2.95-4.25,5.39-5.49c0.84-0.42,1.74-0.77,2.71-1.02c-0.4-3.22-0.02-6.1,0.94-8.56c0.99-2.53,2.59-4.63,4.61-6.21 c2.01-1.57,4.42-2.64,7.04-3.11c3.17-0.58,6.63-0.3,10.03,0.97c0.21,0.08,0.4,0.2,0.56,0.37c0.57,0.6,0.54,1.53-0.07,2.1 c-2.87,2.63-2.64,4.14-1.42,5.42C37.99,9.8,38.88,10.49,39.82,11.21L39.82,11.21z M26.34,108.34l-2.3-6.2l14.65-3.33l-2.85,7.37 L26.34,108.34L26.34,108.34z M21.63,95.63l-2.3-6.2l25.21-5.72l-2.85,7.37L21.63,95.63L21.63,95.63z M16.92,82.93l-2.3-6.2 l35.77-8.12l-2.85,7.37L16.92,82.93L16.92,82.93z"/></g></svg>